<svg id="Слой_1" data-name="Слой 1" xmlns="http://www.w3.org/2000/svg" viewBox="0 0 169 130.76"><defs><style>.cls-1{fill:#f29c1f;}</style></defs><title>logo</title><path class="cls-1" d="M291,269c0-34.24-37.83-62-84.5-62S122,234.76,122,269s37.83,62,84.5,62a108.17,108.17,0,0,0,43.19-8.7l33.46,15.46-7.44-33.19C285.34,294.5,291,282.24,291,269ZM160.5,279a10,10,0,1,1,10-10A10,10,0,0,1,160.5,279Zm46,0a10,10,0,1,1,10-10A10,10,0,0,1,206.5,279Zm46,0a10,10,0,1,1,10-10A10,10,0,0,1,252.5,279Z" transform="translate(-122 -207)"/></svg>